<svg width="125" height="51" viewBox="0 0 125 51" fill="none" xmlns="http://www.w3.org/2000/svg">
<path d="M13.8997 35.92C13.8597 35.92 13.6197 36.04 13.3397 36.16C13.1397 36.28 12.7397 36.4 12.5797 36.52C12.4197 36.6 12.1797 36.68 12.0997 36.68C12.0197 36.68 11.9397 36.72 11.9397 36.8C11.9397 36.84 12.0597 36.84 12.2197 36.84C12.3797 36.8 12.4997 36.72 12.4997 36.68C12.4997 36.6 12.5797 36.56 12.6197 36.6C12.7397 36.6 12.9397 36.56 13.1397 36.44C13.2997 36.32 13.5797 36.16 13.6997 36.12C13.8597 36.04 13.9797 35.96 13.9797 35.92C13.9797 35.88 13.9397 35.88 13.8997 35.92ZM33.1797 3.16C32.4597 2.44 32.1397 2.2 31.4197 1.88C30.2597 1.36 28.6997 1.12 27.5797 1.2C22.9797 1.6 17.2197 6.16 12.4997 13.08C12.1797 13.6 11.8597 14 11.8597 13.96C11.7397 13.84 14.5797 6.84 14.9397 6.32C14.9797 6.24 15.2597 5.68 15.5397 5.04C15.8197 4.4 16.2197 3.52 16.5397 3C16.8597 2.4 17.0197 1.96 17.0997 1.48C17.1397 0.879998 17.1397 0.839996 16.8197 0.599999C16.3397 0.2 15.5397 0.279999 15.2197 0.719995C15.0997 0.879998 14.8997 1.04 14.7797 1.08C14.6597 1.16 14.4997 1.36 14.3797 1.68C14.2597 1.92 13.7797 2.68 13.2997 3.36C12.1397 5.04 11.7397 5.6 11.5797 6.08C11.4597 6.28 11.3397 6.56 11.2197 6.64C10.8997 6.92 11.0197 6.96 11.6197 6.88C11.9397 6.8 12.2197 6.8 12.2597 6.8C12.2597 6.8 12.0597 7.4 11.7397 8.04C11.4997 8.68 11.2597 9.32 11.2597 9.44C11.2597 9.56 10.8597 10.68 10.3797 11.92C7.81969 18.28 4.77969 27.28 3.81969 31.24C3.57969 32.28 3.53969 32.36 3.41969 32.04L3.29969 31.72L3.13969 32C3.01969 32.16 2.97969 32.64 2.89969 33.56C2.89969 34.68 2.81969 35.08 2.41969 36.4C1.69969 38.88 1.17969 41.2 0.739688 43.88C0.579688 45.08 0.539688 48 0.739688 48.44C0.819688 48.68 0.779688 48.8 0.699688 48.92C0.579688 49.08 0.619688 49.16 0.979688 49.44C1.21969 49.64 1.37969 49.84 1.37969 49.96C1.37969 50.08 1.73969 50.48 1.85969 50.48C1.89969 50.48 1.93969 50.44 1.89969 50.36C1.85969 50.28 1.89969 50.24 1.93969 50.24C2.01969 50.24 2.09969 50.36 2.17969 50.48C2.25969 50.64 2.41969 50.72 2.69969 50.72C2.89969 50.72 3.09969 50.68 3.13969 50.6C3.17969 50.56 3.21969 49.72 3.25969 48.76C3.29969 46.88 3.93969 42.12 4.65969 38.36C4.89969 37.04 4.81969 37.12 5.49969 37.48C7.69969 38.6 11.2197 38.2 14.8197 36.4C17.7797 34.88 21.2197 32.16 25.1397 28.08C30.0997 23 32.6997 19.08 34.2197 14.6C34.4597 13.92 34.6597 13.28 34.7397 13.12C34.9397 12.68 35.3397 10.56 35.3797 9.28C35.4597 7.56 35.3397 6.8 34.6197 5.28C34.1397 4.24 33.9397 3.92 33.1797 3.16ZM22.6997 3.44C22.6997 3.4 22.7797 3.36 22.7797 3.36C22.8597 3.36 22.9797 3.28 23.0597 3.2C23.4997 2.8 25.6597 1.92 26.4597 1.8C26.7797 1.8 27.2197 1.72 27.5397 1.68C27.8197 1.64 28.0197 1.64 28.0197 1.72C27.9797 1.8 27.6197 1.84 27.2597 1.92C26.4197 2 24.8597 2.52 23.8997 3.04C23.1397 3.44 22.6997 3.64 22.6997 3.56V3.44ZM22.7397 4.12C22.8597 4 22.9797 3.96 22.9797 3.96C23.0197 4 22.9397 4.08 22.7797 4.2C22.5797 4.32 22.5797 4.32 22.7397 4.12ZM22.5397 3.64C22.5797 3.64 22.4997 3.76 22.3797 3.84C22.2197 3.92 22.1397 3.92 22.1397 3.84C22.1397 3.72 22.4597 3.56 22.5397 3.64ZM22.1397 4.68C21.8997 4.84 21.7397 4.8 21.9797 4.64C22.0997 4.52 22.2197 4.48 22.2597 4.52C22.2597 4.52 22.2597 4.64 22.1397 4.68ZM21.9797 3.88C22.0597 3.96 20.4197 5.24 20.2197 5.24C20.1797 5.24 20.0597 5.32 20.0197 5.4C19.8597 5.64 19.5397 5.88 19.5397 5.72C19.5397 5.48 21.8597 3.76 21.9797 3.88ZM21.2197 5.28C20.9397 5.48 20.6597 5.72 20.5797 5.76C20.1797 6 20.6997 5.48 21.2197 5.12C21.8197 4.72 21.8597 4.84 21.2197 5.28ZM18.2997 6.8C18.8597 6.2 19.3397 5.72 19.3797 5.76C19.4597 5.84 19.2997 6.16 19.1797 6.16C19.0997 6.16 18.8597 6.36 18.6597 6.6C18.4197 6.88 18.0997 7.2 17.8997 7.36C17.0997 8.08 17.2997 7.76 18.2997 6.8ZM17.7397 8.2C18.6597 7.24 19.7397 6.24 19.8597 6.32C19.8597 6.36 19.5397 6.72 19.1397 7.12C18.6997 7.56 18.1797 8.08 17.9797 8.28C17.7797 8.52 17.5397 8.84 17.4197 8.96C17.2597 9.16 17.1797 9.2 17.0997 9.12C17.0597 9 17.2597 8.72 17.7397 8.2ZM16.6997 8.32C16.7797 8.32 16.8197 8.32 16.8197 8.4C16.8197 8.44 16.7797 8.52 16.6997 8.56C16.6197 8.64 16.5797 8.6 16.5797 8.52C16.5797 8.48 16.6197 8.4 16.6997 8.32ZM16.1797 8.84C16.2197 8.8 16.3397 8.76 16.3797 8.76C16.4197 8.76 16.4597 8.8 16.4197 8.84C16.3797 8.96 16.2997 8.96 16.2197 8.96C16.1797 8.96 16.1397 8.96 16.1797 8.84ZM15.5397 9.76C15.6997 9.56 15.8597 9.4 15.8997 9.4C15.9397 9.44 15.6597 9.96 15.4997 10.04C15.2197 10.28 15.2597 10.12 15.5397 9.76ZM14.3797 11.12C14.5797 10.96 14.7797 10.68 14.8597 10.52C15.0597 10.28 15.3397 10.16 15.3397 10.4C15.3397 10.48 15.2997 10.48 15.2597 10.48C15.0997 10.36 14.8597 10.68 14.9397 10.88C14.9397 10.96 14.9397 11 14.8997 10.92C14.8597 10.92 14.7797 10.92 14.6997 11C14.6197 11.04 14.5797 11.16 14.6197 11.24C14.6597 11.32 14.3397 11.92 13.9397 12.4C13.7797 12.64 13.6997 12.64 13.5797 12.48C13.4997 12.36 13.8597 11.8 14.3797 11.12ZM14.7797 12C14.8597 11.96 14.8997 11.92 14.8597 11.92C14.8197 11.92 14.8197 11.8 14.8597 11.68C14.9797 11.56 15.0597 11.44 15.0997 11.44C15.2997 11.48 15.4597 11.44 15.4597 11.32C15.4597 11.24 15.4197 11.24 15.3397 11.24C15.2597 11.32 15.2197 11.28 15.2197 11.24C15.2197 11.12 15.2597 11.08 15.2997 11.08C15.3797 11.08 15.7397 10.64 16.1397 10.12C16.5397 9.56 16.9397 9.12 16.9397 9.12C17.2197 9.08 17.0197 9.52 16.5797 9.92C16.3397 10.16 16.1397 10.36 16.1397 10.44C16.1397 10.48 15.9797 10.68 15.8197 10.88C15.6197 11.04 15.4997 11.24 15.5397 11.24C15.5797 11.28 15.4597 11.48 15.2597 11.68C15.0597 11.88 14.8597 12.12 14.8597 12.12C14.8597 12.2 14.7797 12.36 14.6197 12.56C14.4997 12.68 14.2597 13.04 14.0997 13.28C13.9397 13.56 13.7797 13.76 13.6997 13.76C13.6197 13.76 13.5797 13.84 13.6197 13.96C13.6597 14.08 13.6197 14.16 13.5797 14.08C13.4997 14.04 13.4197 14.2 13.2997 14.4C13.2197 14.76 12.8197 15.2 12.8197 15.04C12.8197 14.72 14.4597 12.2 14.7797 12ZM12.1397 14.4C12.2597 14.4 12.2597 14.44 12.2197 14.52C12.1397 14.72 12.0597 14.76 12.0597 14.6C12.0597 14.56 12.0997 14.48 12.1397 14.4ZM12.1397 15.88C12.2197 15.88 12.3397 15.76 12.4197 15.56C12.4997 15.4 12.6197 15.24 12.6997 15.2C12.9397 15.16 12.8597 15.36 12.4997 15.76C12.3397 16 12.1397 16.24 12.1397 16.32C12.1397 16.4 12.0597 16.6 11.8997 16.76C11.7397 16.96 11.5797 17.32 11.4597 17.56C11.3397 17.84 11.1797 18.12 11.1397 18.2C11.0597 18.32 10.9397 18.6 10.8597 18.8C10.7397 19.04 10.5797 19.28 10.4997 19.36C10.4597 19.48 10.0997 20.08 9.81969 20.68C9.49969 21.32 9.21969 21.8 9.13969 21.72C9.13969 21.64 9.13969 21.52 9.21969 21.4C9.33969 21.32 9.69969 20.56 10.0597 19.8C10.4597 19.04 10.7797 18.4 10.8197 18.36C10.8997 18.32 10.8997 18.2 10.8997 18.08C10.8997 17.96 10.9797 17.84 11.0597 17.8C11.1797 17.76 11.2597 17.64 11.3397 17.48C11.3797 17.32 11.5397 17.04 11.7397 16.8C11.8997 16.56 12.0597 16.24 12.0597 16.12C12.0597 16 12.0997 15.88 12.1397 15.88ZM10.0997 18.4C10.0997 18.28 10.1797 18.24 10.2197 18.28C10.2597 18.32 10.2197 18.4 10.1397 18.52C10.0197 18.6 10.0197 18.6 10.0997 18.4ZM11.9397 15.48C11.9397 15.56 11.8997 15.52 11.8597 15.44C11.7397 15.28 11.6997 15.28 11.6597 15.48C11.6197 15.56 11.5397 15.64 11.4597 15.64C11.4197 15.64 11.4597 15.52 11.5797 15.36C11.7397 15.12 11.9397 15.16 11.9397 15.48ZM11.3397 11.88C11.3797 11.76 11.4197 11.68 11.4597 11.72C11.4997 11.8 11.4597 11.88 11.3797 11.96C11.2597 12.04 11.2597 12.04 11.3397 11.88ZM10.3397 14.4C10.4197 14.28 10.4597 14.28 10.4597 14.36C10.4597 14.48 10.4197 14.6 10.3397 14.72C10.2197 14.92 10.2197 14.72 10.3397 14.4ZM8.45969 19.68C8.49969 19.6 8.57969 19.28 8.61969 19.04C8.61969 18.8 8.77969 18.44 8.93969 18.32C9.05969 18.16 9.25969 17.92 9.33969 17.76C9.45969 17.48 9.45969 17.48 9.25969 17.64C9.09969 17.8 9.05969 17.8 9.13969 17.6C9.17969 17.48 9.21969 17.32 9.21969 17.28C9.21969 17.2 9.29969 17.2 9.37969 17.24C9.53969 17.32 9.57969 17.28 9.61969 16.88C9.61969 16.84 9.69969 16.68 9.73969 16.6C9.97969 16.4 9.93969 16.16 9.69969 16.32C9.45969 16.56 9.49969 16.44 9.81969 16.04C10.0997 15.72 10.2997 15.24 10.0997 15.36C10.0197 15.4 10.0197 15.36 10.0197 15.24C10.0597 15.12 10.0997 15.04 10.1797 15.04C10.3397 15.16 10.6997 14.2 10.5397 14.12C10.4197 14.04 10.4997 13.96 10.7397 14C10.7797 14 10.7797 13.88 10.7397 13.72C10.6997 13.52 10.6997 13.4 10.7797 13.4C10.8597 13.4 10.8997 13.32 10.8597 13.24C10.7797 13.08 10.8197 13.08 10.8997 13.12C11.0197 13.2 11.0597 13.04 11.0597 12.76C11.0197 12.72 11.0597 12.72 11.0997 12.76C11.1797 12.8 11.2597 12.68 11.3797 12.48C11.6597 12 11.6597 12.24 11.4597 12.76C11.3797 12.96 11.0197 13.92 10.6997 14.88C10.3797 15.84 10.0197 16.88 9.85969 17.2C9.61969 17.84 8.33969 20.04 8.45969 19.68ZM8.65969 22.72C8.81969 22.36 8.97969 22.08 9.05969 22.04C9.17969 21.96 9.21969 22 9.21969 22.04C9.17969 22.08 9.01969 22.48 8.81969 22.84C8.61969 23.28 8.45969 23.6 8.37969 23.6C8.25969 23.6 8.29969 23.6 8.65969 22.72ZM8.17969 21.64C8.25969 21.64 8.29969 21.64 8.29969 21.72C8.29969 21.8 8.25969 21.84 8.17969 21.84C8.05969 21.84 8.05969 21.76 8.17969 21.64ZM6.89969 25.12C7.01969 24.68 7.49969 23.6 7.57969 23.6C7.61969 23.6 7.57969 23.8 7.45969 24.04C7.37969 24.28 7.21969 24.64 7.17969 24.8C6.97969 25.24 6.77969 25.56 6.89969 25.12ZM6.45969 23.76C6.49969 23.8 6.37969 24.16 6.29969 24.56C6.05969 25.24 5.89969 25.52 5.89969 25.28C5.89969 25.12 6.41969 23.72 6.45969 23.76ZM32.7397 15.8C32.5797 16.24 32.4997 16.44 32.6197 16.48C32.6997 16.52 32.6997 16.56 32.6197 16.64C32.4597 16.72 32.3397 16.44 32.4197 16.12C32.5797 15.64 33.0197 14.76 33.0197 15C33.0197 15.16 32.8997 15.48 32.7397 15.8ZM33.0997 10.12C32.4997 14.4 31.0197 17.84 27.9397 21.84C26.7797 23.4 26.2597 23.92 23.6597 26.64C22.4597 27.88 21.5797 28.84 21.6597 28.84C21.9797 28.84 27.2197 23.28 28.1397 21.96C28.1797 21.88 28.4997 22.28 28.4997 22.4C28.4997 22.52 28.5397 22.52 28.6197 22.48C28.6997 22.44 28.6997 22.28 28.6597 22.2C28.6197 22.08 28.6597 21.96 28.7397 21.88C28.8197 21.88 28.8997 21.72 28.9397 21.56C29.0197 21.36 29.0597 21.36 29.0597 21.52C29.0597 21.76 29.2997 21.8 29.2997 21.52C29.2997 21.44 29.3397 21.36 29.3797 21.36C29.4597 21.36 29.4997 21.32 29.4597 21.2C29.3797 21.08 29.4597 21 29.5797 21C29.7797 21 29.7797 21 29.6197 20.92C29.4997 20.8 29.4997 20.76 29.6197 20.68C29.7397 20.52 29.7797 20.56 29.8597 20.68C29.9397 20.76 29.9797 20.8 29.9797 20.72C29.9797 20.68 29.8997 20.56 29.8597 20.44C29.7397 20.36 29.7397 20.28 29.8597 20.16C29.9797 20.04 29.9797 20.04 29.9397 20.16C29.8597 20.24 29.8997 20.32 29.9797 20.32C30.0597 20.32 30.0597 20.24 30.0597 20.12C30.0197 20 30.0997 19.72 30.2597 19.48C30.4197 19.28 30.6597 18.92 30.8197 18.68C31.0597 18.28 31.4997 17.84 31.2997 18.2C31.2597 18.28 31.2597 18.32 31.3397 18.32C31.4197 18.32 31.4197 18.24 31.3797 18.08C31.3397 17.96 31.4197 17.68 31.6197 17.36C31.8197 17.08 32.0197 16.76 32.0997 16.6C32.2197 16.32 32.2197 16.32 32.2997 16.52C32.3397 16.6 32.2597 16.88 32.0997 17.08C32.0197 17.32 31.9397 17.6 31.9397 17.72C31.9797 17.8 31.8997 18.16 31.7397 18.44C31.6197 18.72 31.4197 19.04 31.4197 19.16C31.3397 19.32 31.0597 19.72 30.3397 20.76C30.2597 20.92 30.0197 21.24 29.8597 21.44C29.6997 21.64 29.4997 21.96 29.3797 22.08C29.2997 22.2 29.1797 22.4 29.0997 22.48C29.0597 22.52 28.8197 22.88 28.4997 23.24C27.6597 24.36 26.5797 25.6 25.0197 27.16C24.1797 28.04 23.4997 28.76 23.4997 28.8C23.4997 28.84 23.6197 28.8 23.7397 28.68C23.8997 28.56 23.7797 28.72 23.5397 29.04C23.2597 29.4 22.9797 29.68 22.8997 29.68C22.8597 29.68 22.9397 29.52 23.0997 29.32C23.5797 28.8 23.4197 28.8 22.8597 29.24C22.4997 29.6 22.4597 29.68 22.5797 29.76C22.6997 29.88 22.7397 29.92 22.6597 30C22.5397 30.12 21.2997 31.2 20.8197 31.64C20.6597 31.72 20.3797 31.96 20.2197 32.16C20.0197 32.32 19.8597 32.48 19.8197 32.48C19.7397 32.48 19.5397 32.64 19.1797 32.96C19.0597 33.08 18.9397 33.16 18.8597 33.16C18.8197 33.16 18.6597 33.28 18.5797 33.4C18.4197 33.56 18.0597 33.8 17.6997 34C17.3797 34.24 17.0197 34.48 16.9397 34.56C16.6197 34.88 16.0197 35.08 15.8997 34.92C15.8597 34.84 15.7397 34.84 15.4597 35C15.1397 35.16 14.8997 35.4 15.0597 35.4C15.1397 35.4 15.2597 35.32 15.3397 35.28C15.3797 35.2 15.4597 35.16 15.4597 35.2C15.4597 35.28 15.5397 35.24 15.6197 35.16C15.7397 35.08 15.7797 35.08 15.7797 35.16C15.7797 35.2 15.3797 35.48 14.8997 35.72C14.4197 35.96 14.0197 36.2 13.9797 36.24C13.9797 36.28 13.8997 36.32 13.8197 36.32C13.6997 36.32 13.6197 36.4 13.6197 36.44C13.6197 36.8 11.1797 37.48 10.3797 37.36C10.1797 37.32 10.0197 37.36 10.0197 37.4C10.0197 37.48 9.89969 37.48 9.69969 37.44C9.49969 37.36 9.41969 37.4 9.45969 37.48V37.52C9.49969 37.6 9.41969 37.68 9.33969 37.68C9.29969 37.72 9.21969 37.68 9.21969 37.64C9.21969 37.6 8.81969 37.52 8.29969 37.52C7.77969 37.52 7.33969 37.48 7.25969 37.44C7.21969 37.4 6.97969 37.36 6.69969 37.32C6.05969 37.24 5.01969 36.6 5.01969 36.28C5.01969 36.24 5.09969 36.28 5.17969 36.32C5.65969 36.72 8.29969 37 8.97969 36.72L9.25969 36.6L8.97969 36.56C8.73969 36.56 8.73969 36.56 8.93969 36.48C9.33969 36.28 10.0197 36.24 9.93969 36.36C9.89969 36.48 10.0597 36.52 10.1797 36.4C10.1797 36.36 10.4997 36.28 10.7797 36.28C11.0597 36.24 11.3397 36.16 11.3797 36.08C11.4197 36.04 11.4997 36 11.5797 36.04C11.6597 36.08 12.0197 35.92 12.4197 35.68C13.2597 35.28 13.3397 35.24 13.2597 35.4C13.2197 35.44 13.2997 35.48 13.4197 35.44C13.7397 35.4 14.0997 35.28 14.0997 35.16C14.0997 35.08 14.0197 35.08 13.9397 35.08C13.4597 35.32 13.4197 35.28 13.8197 35C14.0597 34.84 14.2997 34.72 14.3797 34.68C14.4197 34.68 14.8197 34.44 15.2597 34.12C15.7397 33.8 16.5797 33.12 17.2197 32.72C18.3797 31.84 18.7797 31.68 17.8997 32.44C17.5797 32.72 17.2997 32.96 17.2197 33.04C17.2197 33.12 16.7397 33.48 16.1797 33.8C15.6597 34.16 15.2197 34.52 15.2197 34.6C15.2197 34.72 16.3397 34.12 16.6997 33.8C16.8197 33.76 16.9397 33.68 17.0197 33.72C17.0997 33.76 17.1797 33.68 17.2197 33.56C17.2997 33.28 17.4597 33.24 17.4997 33.44C17.5397 33.52 17.4597 33.68 17.2997 33.84C17.1397 34 17.0197 34.16 17.0997 34.2C17.1397 34.24 17.2197 34.24 17.2597 34.16C17.2997 34.12 17.5797 33.88 17.8197 33.68C18.5397 33.24 20.6197 31.56 21.0997 31.12C22.2597 30.12 22.3397 30 22.0197 30.16C21.7797 30.28 19.6197 32 18.4997 32.96C18.2997 33.12 18.0597 33.28 17.9797 33.28C17.8997 33.28 17.8197 33.36 17.8197 33.4C17.8197 33.48 17.7797 33.52 17.6997 33.52C17.6597 33.52 17.6197 33.4 17.6197 33.24C17.6197 33 17.6597 32.92 17.8197 33C18.0597 33.08 18.0997 32.96 18.0997 32.72C18.0997 32.64 18.1797 32.6 18.3397 32.52C18.4597 32.48 18.6597 32.32 18.8197 32.12C18.9397 31.96 19.0997 31.76 19.1797 31.76C19.3397 31.76 19.3397 31.84 19.1797 31.96C19.0597 32.16 19.0597 32.16 19.2197 32.04C19.3397 31.96 19.3797 31.84 19.3397 31.76C19.2597 31.64 19.6997 31.2 20.4197 30.64C21.3797 30 21.7397 29.56 21.2197 29.72C20.8997 29.84 20.9397 29.52 21.2597 29.2C21.7797 28.68 21.2197 29.04 20.6197 29.68C20.1397 30.12 19.9797 30.32 20.1397 30.4C20.2597 30.48 20.0997 30.68 19.0597 31.48C18.6597 31.76 18.4997 31.84 18.4997 31.72C18.4997 31.64 18.5797 31.52 18.6197 31.52C18.7797 31.52 19.6597 30.68 19.6597 30.56C19.6597 30.52 19.5797 30.52 19.4997 30.64C19.3797 30.76 18.9797 31.12 18.2197 31.68C18.1797 31.72 17.9797 31.92 17.7797 32.04C17.2197 32.52 15.8197 33.52 15.7397 33.52C15.6997 33.52 15.5397 33.64 15.3797 33.76C14.4197 34.44 11.0197 36.08 10.7397 35.96C10.5797 35.88 9.57969 36.08 8.53969 36.28C8.25969 36.36 8.25969 36.4 8.45969 36.48C8.89969 36.64 7.25969 36.6 6.37969 36.4C5.17969 36.16 5.09969 36.08 5.21969 35.48C5.41969 34.04 6.77969 28.88 7.37969 27.32C8.09969 25.24 9.13969 22.84 9.85969 21.4C10.1397 20.84 10.6997 19.8 11.0597 19.04C13.8197 13.68 17.7397 8.48 21.0997 5.72C22.0997 4.92 23.8197 3.72 24.5797 3.32C25.0197 3.12 25.2997 2.88 25.2197 2.88C25.2197 2.8 25.2597 2.8 25.3797 2.84C25.4997 2.88 25.6997 2.84 25.7797 2.8C25.8997 2.68 25.8997 2.68 25.7397 2.72C25.6197 2.8 25.5797 2.76 25.6197 2.68C25.6597 2.6 25.7797 2.56 25.9397 2.6C26.0597 2.64 26.5397 2.56 26.9397 2.44C28.8597 1.92 30.9797 2.4 31.7397 3.6C32.9797 5.4 33.4197 7.68 33.0997 10.12ZM29.2997 20.48L29.0997 20.88C29.0197 21.12 28.7797 21.44 28.6197 21.6L28.3797 21.88L28.5397 21.52C28.6597 21.36 28.8997 21.04 29.0197 20.84L29.2997 20.48ZM20.2197 30.28C20.2197 30.2 20.3397 30.12 20.4197 30.08C20.5797 30.04 20.6597 29.96 20.6597 29.88C20.6597 29.84 20.7397 29.76 20.8197 29.76C20.8997 29.76 20.8197 29.92 20.6597 30.08C20.4197 30.4 20.2197 30.44 20.2197 30.28ZM23.3397 27.92C23.5397 27.92 23.8597 27.52 23.7797 27.4C23.7397 27.4 23.8197 27.32 23.9397 27.32C24.0197 27.32 24.3397 27.12 24.4997 26.84C25.5397 25.64 26.1797 25.08 26.1797 25.24C26.2597 25.32 26.2997 25.32 26.4197 25.24C26.4997 25.16 26.5797 25 26.5797 24.96C26.5797 24.88 26.5397 24.88 26.4597 25C26.4197 25.12 26.3397 25.12 26.2597 25.08C26.1797 24.96 26.4597 24.64 26.6597 24.68C26.7397 24.72 26.8197 24.64 26.8597 24.48C26.8597 24.32 26.9397 24.16 27.0597 24.16C27.0997 24.16 27.1397 24.12 27.1397 24.04C27.1397 23.92 27.2597 23.76 27.4197 23.64C27.5797 23.52 27.6997 23.36 27.6597 23.28C27.6197 23.2 27.6997 23.16 27.8197 23.2C27.9397 23.24 28.0597 23.16 28.1397 23.08C28.2997 22.84 28.2197 22.84 27.9397 23.04C27.7397 23.12 27.6997 23.08 27.6997 23C27.6997 22.92 27.6197 22.96 27.4997 23.16C27.2597 23.48 26.9397 23.92 26.6197 24.24C26.4597 24.36 26.2197 24.68 26.0597 24.88C25.8997 25.12 25.7797 25.24 25.7797 25.2C25.7797 25.16 25.5797 25.32 25.3797 25.56C25.1797 25.76 24.9797 26 24.9797 26.08C24.9797 26.12 24.8997 26.2 24.7797 26.24C24.6197 26.32 23.1397 27.76 23.1397 27.88C23.1397 27.92 23.2597 27.92 23.3397 27.92ZM9.41969 36.52C9.33969 36.52 9.41969 36.56 9.53969 36.56C9.69969 36.56 9.77969 36.52 9.69969 36.52C9.61969 36.48 9.49969 36.48 9.41969 36.52ZM38.0322 20.4C38.6322 20.4 38.6722 20.4 39.0722 19.84C39.5522 19.16 39.5922 19.08 39.8322 17.96C40.0322 17.04 39.9522 16.64 39.5922 16.64C39.4722 16.64 39.3522 16.56 39.3122 16.44C39.2322 16.16 38.8722 16.24 38.6322 16.6C38.5122 16.8 37.9922 17.48 37.4722 18.16L36.5122 19.36L36.9522 19.88C37.3522 20.4 37.4322 20.4 38.0322 20.4ZM40.4722 36.68C40.9122 36.2 41.4322 35.64 41.6322 35.4C42.1922 34.84 43.9122 32.48 44.4722 31.56C45.4322 29.96 45.8322 28.68 45.4322 28.4C45.2722 28.28 45.3122 28.2 45.5522 27.88C45.6722 27.64 45.7922 27.44 45.7522 27.4C45.7122 27.36 45.5922 27.48 45.5122 27.6C45.4722 27.76 45.1122 28.28 44.7522 28.76C44.4322 29.2 44.1522 29.68 44.1522 29.8C44.1122 29.88 44.0722 29.96 43.9922 29.96C43.7922 29.96 43.0722 30.92 43.1922 31.04C43.2322 31.12 43.1922 31.16 43.1122 31.08C43.0722 31.04 42.8322 31.24 42.6722 31.48C40.7522 34 36.1922 38.72 34.7922 39.64C33.9122 40.2 33.1522 40.48 32.9922 40.32C32.9122 40.2 32.9522 38.04 33.1122 37.16C33.3522 35.32 34.9522 30.2 36.0722 27.56C36.2322 27.12 36.5122 26.52 36.6322 26.16C36.7922 25.76 36.9922 25.32 37.0722 25.16C37.2722 24.76 37.2322 24.52 36.8322 24.24C36.4722 24.04 36.2322 24.04 35.6722 24.24C35.1522 24.4 34.7122 24.88 34.4722 25.52C34.3522 25.72 29.7122 36.36 30.9522 39.92C31.3122 40.96 31.7522 41.6 32.5922 41.92C33.3522 42.2 34.4322 42.08 35.3522 41.56C36.9522 40.68 37.5522 40.12 40.4722 36.68ZM45.2322 28.6C45.2722 28.64 45.2722 28.76 45.2322 28.84C45.2322 28.96 45.1922 28.92 45.1922 28.76C45.1922 28.64 45.1922 28.56 45.2322 28.6ZM41.7522 34.52C42.0322 34.16 42.2322 33.84 42.2322 33.76C42.2322 33.72 42.5922 33.16 43.0322 32.56C44.0722 31.12 44.1922 30.96 44.2722 31.04C44.4322 31.2 44.0722 31.96 43.2722 33C42.1522 34.48 41.2722 35.52 41.2722 35.32C41.2722 35.24 41.5122 34.88 41.7522 34.52ZM65.8319 27.2C65.7919 27.2 65.4719 27.52 65.1519 27.88C64.8319 28.28 63.9919 29.08 63.2719 29.72C62.5919 30.36 61.3519 31.48 60.5519 32.24C59.2319 33.52 57.7519 34.76 56.3519 35.84C54.8719 36.96 51.3119 39.04 51.0319 39C50.9519 38.96 50.7919 39 50.6719 39.04C48.3519 39.96 47.1119 40.24 45.8719 40.16C45.6719 40.16 45.5119 40.16 45.3919 40.16C45.2319 40 45.0719 39.84 44.9519 39.64C44.6719 39.04 44.4719 38.36 44.4319 37.56C44.4319 37.36 44.4719 37.2 44.4719 37C44.4719 37 44.4319 37.04 44.3919 37.04C44.3519 36 44.5119 34.8 44.8319 33.6C45.2319 32.2 45.6719 30.88 45.8319 30.68C45.8719 30.6 46.1919 30.08 46.5119 29.48C47.8719 26.92 50.5119 23.52 52.5519 21.64C53.9119 20.4 54.4719 20.08 54.7519 20.2C55.1119 20.32 55.3519 21.12 55.3519 22.08C55.3519 22.88 55.3119 23.12 54.9919 23.92C54.7519 24.4 54.5119 25.04 54.3919 25.24C54.2719 25.48 54.1519 25.8 54.1119 25.88C53.9919 26.12 54.0719 26.16 54.3919 26.12C54.4719 26.12 54.6719 26.16 54.8719 26.24C55.3919 26.48 55.7119 26.24 56.1919 25.32C57.1519 23.52 57.3519 22.36 56.9519 21.04C56.5519 19.68 55.8719 19.12 54.4719 19.12C53.8319 19.12 53.5119 19.16 52.7919 19.52C52.3119 19.72 51.8719 19.88 51.7919 19.84C51.6319 19.72 50.1919 21.12 49.0719 22.44C46.9919 24.92 45.9519 26.48 44.3119 29.48C43.8319 30.32 43.0719 32.24 42.7519 33.48C42.6319 33.96 42.4719 35 42.3919 35.8C42.2719 37.2 42.2719 37.32 42.5119 38.28C42.6719 38.76 42.8319 39.16 43.0319 39.52C43.0319 39.64 43.0319 39.72 43.0719 39.8C43.2319 40.24 44.4319 41.6 44.8319 41.84C45.1119 42 45.5519 42.08 46.1119 42.08C46.1919 42.08 46.2319 42.12 46.3119 42.12C46.3119 42.12 46.3119 42.12 46.3119 42.08C46.9919 42.08 47.8319 41.96 48.5119 41.76C49.3519 41.52 50.7919 40.88 51.6319 40.4C51.9519 40.24 52.1919 40.08 52.2319 40.08C52.4719 40.12 54.0719 39.24 55.6719 38.2C56.2319 37.88 57.7919 36.6 57.9119 36.48C58.0319 36.28 57.8319 36.36 57.3119 36.76C56.9919 37 56.6319 37.28 56.5119 37.36C56.3519 37.44 55.9119 37.8 55.4319 38.12C54.9919 38.44 54.5919 38.72 54.5519 38.72C54.4719 38.68 54.1119 38.92 53.7119 39.2C53.2719 39.44 52.9119 39.68 52.8719 39.68C52.8719 39.68 52.7119 39.76 52.5519 39.88C52.3519 39.96 52.2319 40.04 52.2319 40C52.2719 39.8 52.7119 39.36 53.1119 39.16C53.3519 39.04 53.7519 38.8 53.9919 38.56C54.2319 38.36 54.4719 38.16 54.5119 38.16C54.5519 38.16 54.6719 38.04 54.7919 37.88L55.0319 37.56L54.5119 37.84C54.2319 38 53.9119 38.2 53.8319 38.28C53.6719 38.4 53.1119 38.64 53.1119 38.56C53.1119 38.52 53.7919 38.08 54.5919 37.56C55.3919 37.08 56.3919 36.36 56.8719 36C57.3119 35.64 57.7919 35.28 57.9519 35.2C58.1119 35.08 58.6719 34.64 59.1919 34.16C61.8319 31.84 62.5119 31.28 63.0719 30.76C63.3919 30.44 63.7119 30.2 63.7119 30.24C63.7919 30.36 61.9119 32.6 60.5919 33.92C60.3519 34.2 60.1519 34.4 60.1919 34.44C60.2319 34.52 63.1519 31.68 63.6719 31C63.9119 30.72 64.1919 30.4 64.2719 30.28C64.5919 29.96 65.1119 29.2 65.0319 29.12C65.0319 29.08 65.0319 28.96 65.1119 28.84C65.1919 28.68 65.1919 28.68 65.1119 28.72C65.0719 28.76 65.0319 28.72 65.0319 28.64C65.0319 28.56 65.1119 28.52 65.2319 28.48C65.4319 28.44 65.5919 28.04 65.4319 28.04C65.3519 28.04 65.2319 28.08 65.1519 28.16C64.9919 28.28 65.3119 27.88 65.6719 27.48C65.8319 27.32 65.8719 27.2 65.8319 27.2ZM43.9519 33.12C43.9119 33.24 43.8319 33.64 43.7519 33.96C43.6719 34.32 43.5919 35.28 43.5119 36.16C43.5119 36.64 43.4719 37 43.4719 37.2C43.4319 37.2 43.3919 37.2 43.3919 37.2C43.3519 37.12 43.3519 37.04 43.3519 36.92C43.2719 36.48 43.2719 35.8 43.3119 35.44C43.3519 35.12 43.4319 34.6 43.4719 34.32C43.4719 34.04 43.6319 33.6 43.7519 33.36C43.9119 33.08 43.9919 32.96 43.9519 33.12ZM45.5119 40.2C45.6719 40.24 45.7919 40.32 45.8319 40.36C45.7119 40.32 45.5919 40.28 45.5119 40.2ZM88.5463 27.84C88.4663 27.84 88.1463 28.24 87.7863 28.68C87.4263 29.16 86.1063 30.6 84.8663 31.84C82.5463 34.16 81.0663 35.4 79.6263 36.16C78.3463 36.84 76.3463 37.32 75.9463 37.08C75.7463 36.96 75.4662 35.68 75.4662 34.92C75.4662 33.88 75.8263 31.8 76.1863 30.44C76.3863 29.8 76.7863 28.44 77.0263 27.48C77.3063 26.52 77.8663 24.96 78.1863 24.04C78.7463 22.64 79.1063 21.64 79.1063 21.56C79.1063 21.56 79.0263 21.52 78.8663 21.44C78.6663 21.4 78.6263 21.32 78.6663 21.16C78.7863 20.88 78.7463 20.88 77.6263 20.84C77.2663 20.84 77.2263 20.92 75.8263 22.84L75.3063 23.56L75.0663 23.12C74.5463 22.08 74.0263 21.84 72.4663 21.8C71.5063 21.8 71.3063 21.84 70.7463 22.16C69.8663 22.64 68.8263 23.4 67.9863 24.32C67.0263 25.32 65.1463 27.8 64.3862 29.16C64.0262 29.72 63.7062 30.24 63.6262 30.28C63.5062 30.36 62.1862 33.24 61.7462 34.4C61.3862 35.32 60.8662 37.64 60.8662 38.2C60.8662 38.88 61.3862 39.6 62.1462 39.88C62.5862 40.04 62.6262 40.04 63.2662 39.88C63.9062 39.72 64.9463 39.28 65.7063 38.76C66.9063 37.96 69.4663 35.12 71.3463 32.4C72.8663 30.24 73.6663 29.04 73.5863 28.96C73.5863 28.92 73.4663 29.08 73.3463 29.28C73.2263 29.48 73.1063 29.72 72.9863 29.8C72.9063 29.88 72.4663 30.48 72.0263 31.08C71.5463 31.72 71.1463 32.2 71.1063 32.16C71.0663 32.12 71.5463 31 71.6663 30.88C71.8663 30.72 72.9063 29.16 72.9063 29.04C72.9063 29 72.8663 28.92 72.7863 28.92C72.7063 28.92 72.6663 29 72.6663 29.04C72.6663 29.12 72.3863 29.48 72.0263 29.84C71.6663 30.24 71.2263 30.8 71.0263 31.08C70.1463 32.32 67.5462 35.32 67.5462 35.08C67.5462 34.84 69.0263 32.96 69.2263 32.96C69.2663 32.96 69.7463 32.4 70.2263 31.72C70.7463 31.04 71.3063 30.28 71.5463 30C71.9063 29.56 74.9463 25.12 75.5063 24.28C75.6263 24.08 75.7463 23.92 75.7863 23.96C75.7863 24 75.5863 24.68 75.3463 25.48C74.4263 28.2 73.5863 31.72 73.4663 33.36C73.3063 35.36 73.8263 37.08 74.7863 37.88C75.5463 38.48 75.7863 38.56 76.7863 38.64C78.4663 38.76 80.8263 37.88 82.5463 36.52C83.4663 35.72 85.1062 34 85.1463 33.72C85.1863 33.56 85.5863 32.96 85.5863 33.12C85.5863 33.16 85.5063 33.32 85.4662 33.44C85.2263 33.88 85.4263 33.68 86.1463 32.8C87.1863 31.52 88.3063 29.52 88.1063 29.32C87.9863 29.2 88.2663 28.4 88.5063 28.28C88.6263 28.16 88.6663 27.84 88.5463 27.84ZM63.5062 31.76C63.5863 31.48 64.0262 30.8 64.0262 30.92C64.0262 30.96 63.9062 31.24 63.7862 31.48C63.5062 32 63.3462 32.16 63.5062 31.76ZM62.8662 33.12C63.0262 32.8 63.1462 32.44 63.2262 32.28C63.2662 32.16 63.3062 32.08 63.3462 32.12C63.3862 32.16 63.3062 32.52 63.1062 32.92C62.9862 33.32 62.6662 34.08 62.4662 34.64C62.3062 35.2 62.1062 35.64 62.0662 35.64C61.9862 35.64 62.3862 34.4 62.8662 33.12ZM62.0662 37.64C62.0662 38.04 61.9462 38.16 61.7862 38C61.7062 37.88 61.9062 36.92 62.3862 35.56C62.6262 34.84 62.8662 34.2 62.8662 34.16C63.0262 34.04 62.7862 35 62.4262 36.12C62.2262 36.72 62.0662 37.4 62.0662 37.64ZM72.1463 27.52C71.9463 27.72 71.9063 27.84 71.9863 27.84C72.3463 27.84 72.0263 28.52 70.8663 29.96C70.6663 30.24 70.0663 31.04 69.5463 31.72C66.9063 35.32 65.1063 37.12 63.4262 38C62.7862 38.32 62.5862 38.36 62.5062 38.2C62.3862 38 63.2262 35.24 63.9062 33.68C64.8662 31.56 65.2663 30.84 66.6663 28.76C67.8663 26.92 69.1463 25.44 70.6663 24.04C71.7863 23 72.0263 22.84 72.5063 22.84C73.1063 22.84 73.2663 22.96 73.3863 23.48C73.6663 24.4 72.9063 26.76 72.1463 27.52ZM74.9463 36.72C74.8263 36.72 74.3863 36.24 74.3863 36.08C74.3863 36.04 74.3863 35.96 74.3863 36C74.4263 36.04 74.5463 36.2 74.7463 36.4C74.8663 36.56 74.9863 36.72 74.9463 36.72ZM82.1463 35.32C82.0663 35.44 81.9863 35.52 81.9463 35.52C81.9063 35.52 81.9463 35.44 82.0263 35.32C82.1463 35.24 82.2263 35.16 82.2663 35.16C82.3063 35.16 82.2663 35.24 82.1463 35.32ZM85.6263 32.32C85.2263 32.84 83.5063 34.56 83.5063 34.44C83.5063 34.4 83.4263 34.44 83.3863 34.56C83.3063 34.68 83.0663 34.84 82.8663 34.96C82.4263 35.2 82.4263 35.2 82.4263 35.04C82.4263 34.96 82.4663 34.88 82.5863 34.88C82.6663 34.88 83.4263 34.2 84.3063 33.32C85.8263 31.76 86.3063 31.4 85.6263 32.32ZM86.3063 32.28C86.1063 32.48 85.9463 32.6 85.9463 32.56C85.9463 32.52 86.1063 32.36 86.3063 32.16C86.5063 31.96 86.6663 31.84 86.6663 31.88C86.6663 31.88 86.5063 32.08 86.3063 32.28ZM106.877 32.36L107.197 32.16L107.677 32.8C108.237 33.56 108.557 34.48 108.477 35.2C108.357 36.28 107.157 38.16 105.877 39.28C104.717 40.32 102.717 41.4 101.277 41.72C100.157 42 99.6369 41.92 99.6369 41.52C99.6369 41.2 100.237 39.68 100.597 39.12C102.517 36.16 104.917 33.56 106.877 32.36ZM92.8369 35.92C92.9169 35.92 92.9569 36.04 92.9569 36.16C92.9569 36.28 93.0769 36.52 93.2769 36.68C93.4769 36.92 93.5169 37.08 93.5169 37.24C93.4769 37.36 93.5169 37.48 93.5569 37.52C93.8369 37.72 93.5169 38.96 93.1569 39.2C93.0369 39.28 92.9569 39.4 92.9569 39.48C92.9569 39.56 92.8769 39.68 92.7969 39.72C92.1969 40.12 91.6369 40.56 91.5969 40.76C91.5969 40.88 91.5169 40.96 91.4369 40.96C91.3969 40.96 91.3569 40.92 91.3969 40.84C91.3969 40.8 91.3969 40.8 91.2769 40.8C91.1569 40.88 91.1569 40.88 91.2369 41C91.3969 41.08 90.5969 41.52 89.4369 42C88.7569 42.24 87.6769 42.32 87.3169 42.2C86.9569 42 87.5169 40.08 88.3169 38.8C88.5169 38.52 88.7169 38.24 88.7169 38.2C88.7169 38.16 89.3569 37.4 90.1569 36.4L91.6369 34.68L92.1569 35.32C92.4769 35.64 92.7569 35.92 92.8369 35.92ZM104.317 21.52C104.677 21.16 105.277 20.52 105.677 20.08C106.117 19.6 106.557 19.16 106.637 19.04C106.837 18.88 106.837 18.88 106.717 19.08C106.637 19.24 106.517 19.4 106.397 19.52C106.317 19.56 105.717 20.24 105.077 20.96C103.397 22.88 102.877 23.44 102.877 23.28C102.877 23.12 103.437 22.48 104.317 21.52ZM106.437 17.64C107.957 16.16 109.517 15.04 108.197 16.44C107.917 16.76 106.997 17.72 106.197 18.64C103.957 21.16 103.677 21.44 103.677 21.32C103.677 20.96 105.197 18.96 106.437 17.64ZM108.357 29.92L107.277 30.6L105.837 29.36C103.317 27.08 102.557 26 102.557 24.76C102.557 24.08 102.237 24.48 105.797 20.56C110.237 15.68 110.637 15.12 110.277 14.64C109.957 14.24 109.437 14.12 108.637 14.32C108.037 14.48 107.757 14.6 107.037 15.2C103.757 17.88 102.117 20.24 101.517 23.08C101.397 23.56 101.237 24 101.157 24.08C100.477 24.8 95.2769 29.6 94.9169 29.84C94.7569 29.92 94.7169 30.04 94.7569 30.12C94.7569 30.24 94.7169 30.28 94.6369 30.28C94.4369 30.28 92.9569 31.68 92.9569 31.84C92.9569 31.92 92.9169 31.92 92.8369 31.92C92.7969 31.92 92.5169 32.16 92.1969 32.44C91.7569 32.92 91.6769 32.96 91.5569 32.84C91.4769 32.72 90.8769 32.12 90.3169 31.48C88.5169 29.48 88.3169 28.6 89.1969 26.64C89.8369 25.2 91.1169 23.08 91.3969 23.08C91.5169 23.08 92.8369 21.92 92.8369 21.84C92.8369 21.8 92.9169 21.72 92.9569 21.72C93.0369 21.72 93.3569 21.48 93.7169 21.2C94.0769 20.96 94.3969 20.68 94.4769 20.68C94.5169 20.68 94.5569 20.6 94.5569 20.52C94.5569 20.4 94.7169 20.28 94.9169 20.16C95.1969 20.04 95.9569 19.4 96.4769 18.84C96.5569 18.76 96.8369 18.52 97.0369 18.32C97.6369 17.8 97.6769 17.64 97.3169 17.28C97.1569 17.12 96.8369 16.92 96.5969 16.88C96.3569 16.84 96.1969 16.76 96.1969 16.68C96.1969 16.64 95.9969 16.56 95.7569 16.56C95.4369 16.56 95.2369 16.68 95.1169 16.8C95.0369 16.96 94.7569 17.08 94.5569 17.12C94.1569 17.2 92.9569 17.96 92.9569 18.12C92.9569 18.2 92.8769 18.2 92.7969 18.2C92.5569 18.2 90.3569 20.84 89.5569 22.12C89.1569 22.72 88.7969 23.24 88.7969 23.32C88.7969 23.36 88.6769 23.6 88.4369 23.92C88.2769 24.2 87.9569 24.84 87.7169 25.32C87.3569 26.2 87.3569 26.32 87.3569 27.36C87.3569 29.76 87.9169 30.84 90.1969 33.24L90.8369 33.92L89.5569 35.36C88.1969 36.92 87.4369 37.96 86.8769 39C86.6769 39.36 86.4769 39.68 86.3969 39.68C86.3569 39.76 86.2369 40.08 86.1969 40.44C85.9969 41.48 86.3969 43.08 87.0769 43.68C87.1569 43.76 87.3569 43.84 87.5569 43.92C88.1169 44 89.0369 43.92 89.9169 43.64C90.6369 43.44 92.5569 42.44 92.8769 42.16C93.2369 41.8 94.1169 41 94.3569 40.8C94.5969 40.6 94.6369 40.48 94.5569 40.28C94.4769 40.08 94.5169 40 94.7169 39.92C95.1969 39.68 95.1969 38.08 94.7569 37.68C94.5569 37.52 94.5169 37.4 94.5569 37.08C94.5569 36.8 94.5569 36.64 94.4769 36.64C94.3969 36.64 93.8769 35.84 93.5169 35.12C93.3569 34.84 93.0769 34.52 92.9569 34.52C92.9169 34.52 92.8369 34.44 92.8369 34.4C92.8369 34.32 92.7969 34.16 92.7169 34.04C92.5569 33.88 92.5569 33.8 92.7169 33.56C92.8369 33.36 92.9569 33.24 93.0369 33.24C93.1969 33.16 94.4369 31.76 94.4769 31.56C94.5569 31.44 94.6369 31.36 94.7169 31.36C94.9169 31.36 96.4369 29.92 96.4769 29.68C96.5169 29.6 96.0769 29.92 95.0369 30.92C94.8369 31.12 94.7569 31.16 94.6369 31.04C94.5569 30.92 94.5569 30.88 94.7169 30.88C94.8369 30.88 95.1169 30.64 96.1969 29.6C96.4369 29.36 96.9569 28.84 97.3169 28.52C99.0769 26.88 99.5969 26.36 100.077 25.88C100.597 25.32 101.037 24.96 101.077 25.08C101.157 25.12 99.3169 26.96 98.7569 27.4C98.5969 27.56 98.1169 28.04 97.6369 28.44C97.2369 28.88 96.7969 29.24 96.7169 29.24C96.6369 29.24 96.5969 29.28 96.5969 29.36C96.5969 29.44 96.6369 29.48 96.6769 29.48C96.7569 29.48 97.7169 28.6 98.8369 27.56C99.9969 26.52 101.077 25.56 101.237 25.4L101.517 25.12L101.597 25.52C101.837 26.72 102.877 28.16 104.997 30.04C105.637 30.68 106.157 31.24 106.157 31.32C106.157 31.4 105.757 31.76 105.237 32.12C103.837 33.24 102.317 34.64 101.277 36C100.677 36.72 100.277 37.16 100.197 37.12C100.117 37 99.5169 37.72 99.5169 37.96C99.5169 38.04 99.3169 38.6 99.0769 39.24C98.5569 40.48 98.4769 40.8 98.4769 41.56C98.4769 42 98.5569 42.2 98.7569 42.64C99.2369 43.4 99.5969 43.56 100.677 43.52C102.877 43.4 106.317 41.48 108.077 39.4C109.037 38.28 109.077 38.16 109.397 37.44C109.677 36.88 109.677 36.68 109.677 35.76C109.677 34.8 109.637 34.64 109.317 33.8C109.117 33.32 108.877 32.88 108.797 32.8C108.717 32.68 108.637 32.56 108.637 32.48C108.637 32.4 108.517 32.24 108.357 32.04C108.077 31.72 108.077 31.6 108.357 31.36C108.637 31.04 108.477 31.04 108.157 31.36C107.997 31.48 107.837 31.56 107.757 31.56C107.557 31.56 106.157 32.56 104.917 33.6C103.637 34.72 103.237 34.96 103.437 34.64C103.477 34.52 105.477 32.64 105.877 32.28C106.237 32 107.317 31.24 107.917 30.92C108.237 30.72 109.317 30.04 110.317 29.44C111.317 28.8 112.237 28.28 112.357 28.32C112.437 28.36 112.317 28.48 111.997 28.68C111.237 29.16 110.077 30.08 110.357 30C110.797 29.84 113.357 28.2 113.117 28.2C112.997 28.2 113.517 27.6 113.797 27.4C114.077 27.28 114.277 26.84 114.157 26.72C114.077 26.64 110.197 28.8 108.357 29.92ZM123.699 25.4C123.299 24.6 121.499 23.56 120.259 23.4C119.739 23.32 119.739 23.24 120.179 22.44C120.299 22.2 120.419 21.96 120.419 21.88C120.419 21.64 119.539 21.4 118.779 21.4C117.939 21.4 117.979 21.4 116.979 22.32C116.499 22.72 115.299 24.68 115.059 25.44C114.979 25.68 114.659 26.36 114.419 26.96C113.939 28.08 113.179 30.56 112.699 32.64C112.499 33.56 112.459 34.24 112.419 35.56C112.419 37.12 112.459 37.28 112.779 38.04C113.179 39 113.539 39.4 114.499 39.8C115.379 40.2 116.059 40.24 117.019 39.92C118.739 39.4 121.019 37.16 122.419 34.68C123.299 33.04 123.619 32.24 123.979 30.52C124.459 28.28 124.379 26.64 123.699 25.4ZM122.539 28.56C122.419 29.52 121.899 31.64 121.659 32.16C121.259 33.08 120.259 34.84 119.819 35.48C119.099 36.44 117.739 37.64 116.859 38.12C115.979 38.56 115.059 38.76 114.859 38.52C114.099 37.64 114.299 34.2 115.259 31C116.299 27.72 117.219 25.68 117.499 25.96C117.739 26.16 118.179 26.08 118.459 25.76C118.579 25.6 118.899 25.08 119.139 24.64L119.579 23.84L120.139 24.12C121.259 24.68 121.779 25.08 122.059 25.68C122.419 26.4 122.619 27.76 122.539 28.56Z" fill="black"/>
</svg>
