<svg width="60" height="60" viewBox="0 0 60 60" fill="none" xmlns="http://www.w3.org/2000/svg">
<path d="M30.0032 1.67656e-07C24.0696 -0.000626994 18.2691 1.75831 13.3352 5.05437C8.40132 8.35043 4.55565 13.0356 2.28454 18.5173C0.0134218 23.999 -0.58113 30.0311 0.576069 35.8508C1.73327 41.6704 4.59024 47.0162 8.78569 51.2121C12.9811 55.408 18.3266 58.2655 24.1461 59.4233C29.9657 60.5811 35.9978 59.9872 41.4798 57.7167C46.9617 55.4461 51.6473 51.601 54.9439 46.6674C58.2404 41.7339 60 35.9336 60 30C59.9908 22.0469 56.8275 14.4221 51.2041 8.79811C45.5807 3.17411 37.9563 0.0100706 30.0032 1.67656e-07ZM30.0032 57.4601C24.5719 57.4607 19.2625 55.8507 14.7463 52.8338C10.2301 49.8168 6.70997 45.5283 4.6311 40.5107C2.55222 35.4931 2.00797 29.9717 3.06716 24.6447C4.12636 19.3178 6.74143 14.4246 10.5817 10.5839C14.4219 6.74322 19.3148 4.12758 24.6416 3.06777C29.9685 2.00796 35.4899 2.55157 40.5078 4.62987C45.5257 6.70817 49.8145 10.2278 52.832 14.7437C55.8495 19.2595 57.4601 24.5688 57.4601 30C57.4509 37.2795 54.5552 44.2582 49.4082 49.4059C44.2611 54.5536 37.2827 57.45 30.0032 57.4601Z" fill="#0C0D0C"/>
<path d="M35.7458 16.8472H22.4279C22.3352 16.8468 22.2434 16.8647 22.1576 16.8998C22.0718 16.935 21.9938 16.9868 21.9281 17.0522C21.8624 17.1176 21.8103 17.1954 21.7747 17.281C21.7391 17.3666 21.7208 17.4584 21.7208 17.5511V20.3605C21.7208 20.4533 21.7391 20.5451 21.7747 20.6307C21.8103 20.7163 21.8624 20.794 21.9281 20.8594C21.9938 20.9248 22.0718 20.9766 22.1576 21.0118C22.2434 21.047 22.3352 21.0649 22.4279 21.0645H35.7458V16.8472Z" fill="#00A79D"/>
<path d="M37.0459 14.7227H20.2812V15.9688H37.0459V14.7227Z" fill="#0C0D0C"/>
<path d="M37.0459 21.8572H20.2812V23.1033H37.0459V21.8572Z" fill="#0C0D0C"/>
<path d="M39.8773 27.1777H22.4373C22.3446 27.1773 22.2528 27.1952 22.167 27.2304C22.0812 27.2656 22.0032 27.3174 21.9375 27.3828C21.8718 27.4482 21.8197 27.5259 21.7841 27.6116C21.7485 27.6972 21.7302 27.789 21.7302 27.8817V31.2492C21.7311 31.4362 21.8059 31.6152 21.9385 31.7471C22.071 31.8791 22.2504 31.9531 22.4373 31.9531H39.8773V27.1777Z" fill="#00A79D"/>
<path d="M41.26 24.8252H20.2812V26.2363H41.26V24.8252Z" fill="#0C0D0C"/>
<path d="M41.26 32.9014H20.2812V34.3124H41.26V32.9014Z" fill="#0C0D0C"/>
<path d="M43.5556 38.4539H22.4373C22.2504 38.4539 22.071 38.5279 21.9385 38.6598C21.8059 38.7918 21.7311 38.9708 21.7302 39.1578V42.5539C21.7302 42.7414 21.8047 42.9212 21.9373 43.0539C22.0699 43.1865 22.2498 43.261 22.4373 43.261H43.5556V38.4539Z" fill="#00A79D"/>
<path d="M44.8241 44.1519H20.2812V45.5724H44.8241V44.1519Z" fill="#0C0D0C"/>
<path d="M44.8241 36.0249H20.2812V37.4455H44.8241V36.0249Z" fill="#0C0D0C"/>
<path d="M19.8056 14.7261C18.4381 14.7261 17.1267 15.2693 16.1598 16.2362C15.1929 17.2031 14.6497 18.5145 14.6497 19.882V40.4136C14.6497 41.7814 15.1928 43.0931 16.1596 44.0605C17.1264 45.028 18.4378 45.5719 19.8056 45.5727H20.8076V14.7261H19.8056ZM18.5055 30.105C18.5045 30.2603 18.4572 30.4117 18.3697 30.5399C18.2821 30.6682 18.1583 30.7674 18.014 30.8248V40.5817C18.1825 40.6488 18.3224 40.7725 18.4095 40.9316C18.4967 41.0907 18.5257 41.2752 18.4915 41.4533C18.4574 41.6315 18.3622 41.7921 18.2224 41.9077C18.0825 42.0232 17.9068 42.0864 17.7254 42.0864C17.5441 42.0864 17.3683 42.0232 17.2285 41.9077C17.0887 41.7921 16.9935 41.6315 16.9594 41.4533C16.9252 41.2752 16.9542 41.0907 17.0413 40.9316C17.1285 40.7725 17.2684 40.6488 17.4369 40.5817V30.8248C17.2914 30.7684 17.1664 30.6693 17.0782 30.5406C16.9901 30.4118 16.9429 30.2594 16.9429 30.1034C16.9429 29.9474 16.9901 29.795 17.0782 29.6662C17.1664 29.5375 17.2914 29.4384 17.4369 29.382V19.6283C17.2684 19.5612 17.1285 19.4375 17.0413 19.2784C16.9542 19.1193 16.9252 18.9348 16.9594 18.7567C16.9935 18.5785 17.0887 18.4179 17.2285 18.3023C17.3683 18.1868 17.5441 18.1236 17.7254 18.1236C17.9068 18.1236 18.0825 18.1868 18.2224 18.3023C18.3622 18.4179 18.4574 18.5785 18.4915 18.7567C18.5257 18.9348 18.4967 19.1193 18.4095 19.2784C18.3224 19.4375 18.1825 19.5612 18.014 19.6283V29.382C18.1588 29.4397 18.2829 29.5393 18.3705 29.6682C18.4581 29.797 18.5051 29.9492 18.5055 30.105Z" fill="#0C0D0C"/>
<path d="M21.5527 17.2182L36.2467 17.1738V17.2594L21.5527 17.2182Z" fill="white"/>
<path d="M21.4608 17.5798L36.2467 17.5354V17.621L21.4608 17.5798Z" fill="white"/>
<path d="M21.4608 17.9379L36.2467 17.8936V17.9792L21.4608 17.9379Z" fill="white"/>
<path d="M21.4608 18.2993L36.2467 18.2549V18.3405L21.4608 18.2993Z" fill="white"/>
<path d="M21.4608 18.6606L36.2467 18.6162V18.7018L21.4608 18.6606Z" fill="white"/>
<path d="M21.4608 19.0224L36.2467 18.978V19.0636L21.4608 19.0224Z" fill="white"/>
<path d="M21.4608 19.384L36.2467 19.3396V19.4252L21.4608 19.384Z" fill="white"/>
<path d="M21.4608 19.7453L36.2467 19.7009V19.7865L21.4608 19.7453Z" fill="white"/>
<path d="M21.4608 20.1066L36.2467 20.0623V20.1479L21.4608 20.1066Z" fill="white"/>
<path d="M21.4672 20.4648L36.2468 20.4204V20.506L21.4672 20.4648Z" fill="white"/>
<path d="M21.6384 20.8269L36.2468 20.7825V20.8681L21.6384 20.8269Z" fill="white"/>
<path d="M21.0803 28.1067L40.1121 28.0654V28.1479L21.0803 28.1067Z" fill="white"/>
<path d="M21.0803 27.7963L40.1121 27.7551V27.8376L21.0803 27.7963Z" fill="white"/>
<path d="M21.0803 27.4599L40.1121 27.4155V27.498L21.0803 27.4599Z" fill="white"/>
<path d="M20.9597 28.4589L40.112 28.4177V28.5002L20.9597 28.4589Z" fill="white"/>
<path d="M20.9597 28.8078L40.112 28.7666V28.849L20.9597 28.8078Z" fill="white"/>
<path d="M20.9597 29.1596L40.112 29.1152V29.2009L20.9597 29.1596Z" fill="white"/>
<path d="M20.9597 29.5119L40.112 29.4675V29.55L20.9597 29.5119Z" fill="white"/>
<path d="M20.9597 29.8637L40.112 29.8193V29.9018L20.9597 29.8637Z" fill="white"/>
<path d="M20.9597 30.2124L40.112 30.1711V30.2536L20.9597 30.2124Z" fill="white"/>
<path d="M20.9597 30.5647L40.112 30.5234V30.6059L20.9597 30.5647Z" fill="white"/>
<path d="M20.9597 30.9165L40.112 30.8721V30.9577L20.9597 30.9165Z" fill="white"/>
<path d="M20.9692 31.2651L40.112 31.2207V31.3063L20.9692 31.2651Z" fill="white"/>
<path d="M21.1912 31.6169L40.112 31.5725V31.655L21.1912 31.6169Z" fill="white"/>
<path d="M21.1088 39.4272L45.027 39.3828V39.4653L21.1088 39.4272Z" fill="white"/>
<path d="M21.1088 39.1167L45.027 39.0723V39.1547L21.1088 39.1167Z" fill="white"/>
<path d="M21.1088 38.7802L45.027 38.7358V38.8183L21.1088 38.7802Z" fill="white"/>
<path d="M20.9597 39.779L45.0269 39.7346V39.8171L20.9597 39.779Z" fill="white"/>
<path d="M20.9597 40.1276L45.0269 40.0833V40.1657L20.9597 40.1276Z" fill="white"/>
<path d="M20.9597 40.4799L45.0269 40.4355V40.518L20.9597 40.4799Z" fill="white"/>
<path d="M20.9597 40.8286L45.0269 40.7874V40.8698L20.9597 40.8286Z" fill="white"/>
<path d="M20.9597 41.1806L45.0269 41.1362V41.2218L20.9597 41.1806Z" fill="white"/>
<path d="M20.9597 41.5327L45.0269 41.4883V41.5707L20.9597 41.5327Z" fill="white"/>
<path d="M20.9597 41.885L45.0269 41.8406V41.923L20.9597 41.885Z" fill="white"/>
<path d="M20.9597 42.2365L45.0269 42.1921V42.2746L20.9597 42.2365Z" fill="white"/>
<path d="M20.9725 42.5854L45.0271 42.541V42.6235L20.9725 42.5854Z" fill="white"/>
<path d="M21.2483 42.9372L45.027 42.8928V42.9753L21.2483 42.9372Z" fill="white"/>
<path d="M23.3476 22.2533L22.9195 22.6973L22.9005 19.5137L23.801 19.501L23.8137 22.7195L23.3476 22.2533Z" fill="#00A79D"/>
<path d="M23.8008 19.5139V22.6848L23.3442 22.2377L22.9003 22.6816V19.5107H23.7913L23.8008 19.5139ZM23.8135 19.4885H22.8622V22.7451L22.9035 22.7038L23.3315 22.2789L23.7628 22.7102L23.8008 22.7482V19.4917L23.8135 19.4885Z" fill="white"/>
<path d="M23.3476 33.3041L22.9195 33.748L22.9005 30.5644L23.801 30.5549L23.8137 33.7734L23.3476 33.3041Z" fill="#00A79D"/>
<path d="M23.8008 30.5676V33.7385L23.3442 33.2978L22.9003 33.7417V30.5708H23.7913L23.8008 30.5676ZM23.8135 30.5454H22.8622V33.7988L22.9035 33.7607L23.3442 33.3358L23.7755 33.7671L23.8135 33.8083V30.5422V30.5454Z" fill="white"/>
<path d="M23.3476 44.621L22.9195 45.0649L22.9005 41.8813L23.801 41.8687L23.8137 45.0871L23.3476 44.621Z" fill="#00A79D"/>
<path d="M23.8008 41.8972V45.0681L23.3442 44.6147L22.9003 45.0586V41.8972H23.7913H23.8008ZM23.8135 41.875H22.8622V45.1283L22.9035 45.0903L23.3315 44.6622L23.7628 45.0935L23.8008 45.1315V41.8591L23.8135 41.875Z" fill="white"/>
</svg>
